<?xml version="1.0" encoding="utf-8"?>
<!-- Generator: Adobe Illustrator 20.0.0, SVG Export Plug-In . SVG Version: 6.00 Build 0)  -->
<svg version="1.1" id="Layer_2" xmlns="http://www.w3.org/2000/svg" xmlns:xlink="http://www.w3.org/1999/xlink" x="0px" y="0px"
	 viewBox="0 0 356 131" style="enable-background:new 0 0 356 131;" xml:space="preserve">
<style type="text/css">
	.st0{fill:#FFFFFF;}
	.st1{fill:#E36225;}
</style>
<g>
	<g>
		<g>
			<g>
				<path class="st0" d="M13.1,57.3c0,4.2,2.8,7.7,7.5,7.7c4.2,0,7.5-2.6,7.5-7c0-5-4.8-6.3-8.7-7.5c-3.7-1.1-6.8-2-9.9-4.3
					c-3.6-2.7-5.5-6.5-5.5-11.1c0-8.4,7.2-14.6,15.3-14.6c3.5,0,6.9,1.1,9,3.9v-2.8h7.4v13.6H27c-0.1-3.8-2.8-6.6-6.6-6.6
					c-3.8,0-6.9,2.3-6.9,6.3c0,5,4.4,6,8.3,7.2c3.9,1.1,7.6,2.1,10.9,4.6c3.3,2.6,5,6.4,5,10.7c0,9.2-6.8,15.9-16.1,15.9
					c-3.9,0-7.3-1.4-9.7-4.3v3.3H4.3V57.3H13.1z"/>
				<path class="st0" d="M145.2,57.3c0,4.2,2.8,7.7,7.5,7.7c4.2,0,7.5-2.6,7.5-7c0-5-4.8-6.3-8.7-7.5c-3.7-1.1-6.8-2-9.9-4.3
					c-3.6-2.7-5.5-6.5-5.5-11.1c0-8.4,7.2-14.6,15.3-14.6c3.5,0,6.9,1.1,9,3.9v-2.8h7.4v13.6h-8.7c-0.1-3.8-2.8-6.6-6.6-6.6
					c-3.8,0-6.9,2.3-6.9,6.3c0,5,4.4,6,8.3,7.2c3.9,1.1,7.6,2.1,10.9,4.6c3.3,2.6,5,6.4,5,10.7c0,9.2-6.8,15.9-16.1,15.9
					c-3.9,0-7.3-1.4-9.7-4.3v3.3h-7.7V57.3H145.2z"/>
				<path class="st0" d="M233.2,37.6c-2.8-4.8-8.5-7.7-14-7.7c-9.6,0-16.6,7.2-16.6,16.8c0,9.1,7.3,16.7,16.5,16.7
					c5.8,0,11.2-2.8,14.3-7.7h10.4C240.5,66,230,73.3,219.2,73.3c-6.8,0-13.8-3-18.6-7.8c-5-5-7.7-11.9-7.7-19
					c0-14.2,11.5-26.3,25.9-26.3c5.9,0,11.6,2,15.7,6.3v-5.1h8v16.2H233.2z"/>
				<path class="st0" d="M282.1,64.2h5.5v8.1h-20.7v-8.1h5.5V29.7h-5.5v-8.1h20.7v8.1h-5.5V64.2z"/>
				<path class="st0" d="M331.2,21.6c4.5,0,9.7,0.6,13.5,3.3c4.3,3.1,6.3,8,6.3,13.2c0,4.5-1.7,8.8-4.9,11.9
					c-3.7,3.8-7.8,4.7-12.9,4.7h-7v9.4h5.5v8.1H311v-8.1h5.5V29.7H311v-8.1H331.2z M331.9,46c2.4,0,4.6-0.1,6.5-1.7
					c1.8-1.6,2.8-3.8,2.8-6.2c0-2.5-1.2-4.8-3.2-6.2c-2.1-1.5-4.2-1.6-6.5-1.6h-5.3V46H331.9z"/>
			</g>
		</g>
		<g>
			<g>
				<path class="st1" d="M81.1,68.6L78.9,68l-2,8.3l1.7,0.4c0.4-1.3,1.7-1.4,2.9-1.1l0.4-1.5l-2-0.5L81.1,68.6"/>
				<path class="st1" d="M73.3,65.1c-2-1.4-4-0.3-5.3,1.6c-1.3,1.9-1.7,4.1,0.3,5.6c2,1.4,3.9,0.2,5.2-1.7
					C74.8,68.7,75.3,66.4,73.3,65.1 M71.9,69.4c-0.6,0.9-1.6,2.1-2.7,1.4c-1.1-0.8-0.3-2.1,0.4-3c0.6-0.9,1.6-2.2,2.7-1.4
					C73.4,67.2,72.5,68.5,71.9,69.4z"/>
				<path class="st1" d="M67.6,59.3c-1.4-2.1-3.7-1.7-5.6-0.5c-1.9,1.3-3.1,3.2-1.7,5.3c1.3,2,3.6,1.6,5.5,0.4
					C67.7,63.2,69,61.3,67.6,59.3 M64.7,62.8c-0.9,0.6-2.3,1.4-3,0.3c-0.8-1.1,0.5-2,1.4-2.7c0.9-0.6,2.3-1.5,3-0.3
					C66.9,61.3,65.7,62.2,64.7,62.8z"/>
				<path class="st1" d="M59.4,53.5l5.1-1.1L64,50.2L55.7,52l0.4,1.7c1.3-0.2,2,0.9,2.2,2.1l1.5-0.3L59.4,53.5"/>
				<path class="st1" d="M59.4,46.5c2.2,0.3,4.5-0.2,4.8-2.6c0.4-2.5-1.5-3.7-3.8-4.1c-2.3-0.4-4.5,0.3-4.8,2.8
					C55.2,44.9,57.1,46.1,59.4,46.5 M60.1,41.7c1.1,0.2,2.7,0.4,2.4,1.8c-0.2,1.3-1.8,1.1-2.9,1c-1.1-0.2-2.6-0.5-2.4-1.8
					C57.5,41.4,59,41.6,60.1,41.7z"/>
				<path class="st1" d="M59.7,35l1.3,0.8l1-1.8l4.5,2.6l1.1-1.9l-7.3-4.3l-0.9,1.5C60.5,32.7,60.3,34,59.7,35"/>
				<path class="st1" d="M68.4,26.3l3.3,4.1l1.7-1.4l-5.3-6.7l-1.3,1.1c0.8,1.1,0.1,2.2-0.9,2.9l0.9,1.2L68.4,26.3"/>
				<path class="st1" d="M79.3,26.4c2.4-0.7,2.7-3,2-5.2c-0.7-2.2-2.2-3.9-4.6-3.1c-2.3,0.7-2.6,3-1.9,5.2
					C75.5,25.3,77,27.1,79.3,26.4 M77.2,19.6c1.3-0.4,1.8,1.1,2.1,2.1c0.3,1.1,0.8,2.6-0.6,3c-1.3,0.4-1.8-1.1-2.1-2.2
					C76.4,21.5,76,20,77.2,19.6z"/>
				<path class="st1" d="M86.8,25.3l2.2,0.2l0.6-8.5l-1.7-0.1c-0.2,1.3-1.4,1.7-2.6,1.6l-0.1,1.5l2,0.1L86.8,25.3"/>
				<path class="st1" d="M95,27.4c2.3,1.1,4-0.4,5-2.5c1-2.1,1-4.4-1.3-5.4c-2.2-1-3.9,0.5-4.9,2.5C92.9,24.1,92.8,26.4,95,27.4
					 M95.7,22.9c0.5-1,1.2-2.4,2.4-1.8c1.2,0.6,0.6,2,0.1,3c-0.5,1-1.2,2.4-2.4,1.8C94.6,25.4,95.2,23.9,95.7,22.9z"/>
				<path class="st1" d="M107.1,31.7c1.7-1.6,2.5-3.7,0.8-5.5c-1.6-1.8-3.8-1-5.4,0.6c-1.7,1.6-2.5,3.7-0.9,5.4
					C103.3,34,105.5,33.3,107.1,31.7 M103.8,28.2c0.8-0.8,2-1.8,2.9-0.8c0.9,1-0.2,2.1-1,2.9c-0.8,0.8-2,1.8-2.9,0.8
					C101.9,30.1,103,29,103.8,28.2z"/>
				<path class="st1" d="M105.8,38.5l0.8,2l7.9-3.2l-0.6-1.6c-1.3,0.4-2.2-0.5-2.6-1.7l-1.4,0.6l0.8,1.9L105.8,38.5"/>
				<path class="st1" d="M111.8,43.4c-2.3,0-4.3,1-4.3,3.4c0,2.5,2.1,3.4,4.4,3.4c2.3,0,4.3-1,4.3-3.5
					C116.2,44.3,114.1,43.4,111.8,43.4 M111.9,48.2c-1.1,0-2.7,0-2.7-1.4c0-1.3,1.6-1.4,2.7-1.4c1.1,0,2.7,0,2.7,1.4
					C114.6,48.1,113,48.2,111.9,48.2z"/>
				<path class="st1" d="M113.5,54.8l-1.4-0.5l-0.7,1.9l-4.9-1.8l-0.8,2.1l8,3l0.6-1.6C113,57.2,113,55.9,113.5,54.8"/>
				<path class="st1" d="M107.7,63.3l-1.4,1.5l-3.9-3.5l-1.5,1.6l6.3,5.7l1.1-1.3c-0.9-1-0.5-2.2,0.4-3L107.7,63.3"/>
				<path class="st1" d="M95.7,66.6c-2.2,1.1-2.1,3.4-1.1,5.5c1,2,2.8,3.4,5.1,2.3c2.2-1.1,2-3.4,1-5.4
					C99.6,66.9,97.8,65.5,95.7,66.6 M98.8,72.9c-1.2,0.6-2-0.8-2.5-1.7c-0.5-1-1.2-2.4,0-3c1.2-0.6,1.9,0.8,2.5,1.8
					C99.3,70.8,100,72.3,98.8,72.9z"/>
				<path class="st1" d="M88.9,74.1l-0.5-5.2l-2.2,0.2l0.8,8.5l1.7-0.2c0-1.3,1.1-1.9,2.3-2l-0.1-1.5L88.9,74.1"/>
				<path class="st1" d="M94.9,62.5c0.7-0.4,1-1.3,0.6-2.1l-2.7-4.7c0.7-0.5,1.3-1.1,1.9-1.8l4.7,2.8c0.7,0.4,1.7,0.2,2.1-0.5
					c0.4-0.7,0.2-1.7-0.5-2.1l-4.7-2.8c0.3-0.8,0.6-1.6,0.7-2.5l5.4,0c0.8,0,1.5-0.7,1.6-1.5c0-0.8-0.7-1.5-1.5-1.5l-5.4,0
					c-0.1-0.9-0.3-1.7-0.6-2.5l4.7-2.7c0.7-0.4,1-1.3,0.6-2.1c-0.4-0.7-1.4-1-2.1-0.6l-4.7,2.7c-0.5-0.7-1.1-1.3-1.8-1.9l2.8-4.7
					c0.4-0.7,0.2-1.7-0.5-2.1c-0.7-0.4-1.7-0.2-2.1,0.5L90.3,37c-0.8-0.3-1.6-0.5-2.5-0.7l0-5.5c0-0.8-0.7-1.5-1.5-1.5
					c-0.8,0-1.5,0.7-1.5,1.5l0,5.5c-0.9,0.1-1.7,0.3-2.5,0.7l-2.7-4.8c-0.4-0.7-1.3-1-2.1-0.6c-0.7,0.4-1,1.4-0.6,2.1l2.7,4.8
					c-0.7,0.5-1.3,1.1-1.8,1.8L73,37.5c-0.7-0.4-1.7-0.2-2.1,0.5c-0.4,0.7-0.2,1.7,0.5,2.1l4.7,2.8c-0.3,0.8-0.5,1.6-0.7,2.5l-5.5,0
					c-0.8,0-1.5,0.7-1.5,1.5c0,0.8,0.7,1.5,1.5,1.5l5.5,0c0.1,0.9,0.3,1.7,0.6,2.5l-4.8,2.7c-0.7,0.4-1,1.3-0.6,2.1
					c0.4,0.7,1.3,1,2.1,0.6l4.8-2.7c0.5,0.7,1.1,1.3,1.8,1.9l-2.8,4.7c-0.4,0.7-0.2,1.7,0.5,2.1c0.7,0.4,1.7,0.2,2.1-0.5L82,57
					c0.8,0.3,1.6,0.6,2.5,0.7l0,5.5c0,0.8,0.7,1.5,1.5,1.5c0.8,0,1.5-0.7,1.5-1.5l0.1-5.5c0.9-0.1,1.7-0.3,2.5-0.6l2.7,4.8
					C93.2,62.6,94.1,62.9,94.9,62.5 M86.2,55.4c-4.6,0-8.3-3.7-8.3-8.3c0-4.6,3.7-8.3,8.3-8.3c4.6,0,8.3,3.7,8.3,8.3
					C94.5,51.6,90.8,55.4,86.2,55.4z"/>
			</g>
		</g>
	</g>
	<g>
		<path class="st0" d="M12,103.2c0,1.2-0.4,2.1-1.3,2.8c-0.9,0.7-2,1-3.5,1c-1.5,0-2.7-0.2-3.7-0.7v-2.1c0.6,0.3,1.2,0.5,1.9,0.7
			c0.7,0.2,1.3,0.2,1.9,0.2c0.9,0,1.5-0.2,1.9-0.5c0.4-0.3,0.6-0.8,0.6-1.3c0-0.5-0.2-0.9-0.6-1.3c-0.4-0.3-1.2-0.8-2.3-1.2
			c-1.2-0.5-2.1-1.1-2.6-1.7c-0.5-0.6-0.7-1.4-0.7-2.3c0-1.1,0.4-2,1.2-2.6c0.8-0.6,1.8-1,3.2-1c1.3,0,2.5,0.3,3.8,0.8L11.1,96
			c-1.2-0.5-2.2-0.7-3.2-0.7c-0.7,0-1.2,0.2-1.6,0.5C6,96,5.8,96.4,5.8,96.9c0,0.3,0.1,0.6,0.2,0.9c0.1,0.2,0.4,0.5,0.7,0.7
			C7,98.7,7.6,99,8.5,99.3c1,0.4,1.7,0.8,2.1,1.1c0.5,0.4,0.8,0.7,1,1.2C11.9,102.1,12,102.6,12,103.2z"/>
		<path class="st0" d="M20.3,106.8l-3.9-11.1h-0.1c0.1,1.6,0.2,3.2,0.2,4.6v6.5h-2V93.5h3.1l3.7,10.6h0.1l3.8-10.6h3.1v13.3h-2.1
			v-6.6c0-0.7,0-1.5,0-2.6s0.1-1.7,0.1-1.9h-0.1l-4,11.1H20.3z"/>
		<path class="st0" d="M40,106.8l-1.3-3.7h-5.1l-1.3,3.7H30l5-13.3h2.4l5,13.3H40z M38.1,101.3l-1.2-3.6c-0.1-0.2-0.2-0.6-0.4-1.1
			c-0.2-0.5-0.3-0.9-0.3-1.1c-0.2,0.7-0.4,1.6-0.7,2.4l-1.2,3.5H38.1z"/>
		<path class="st0" d="M46.2,101.5v5.3H44V93.5h3.8c1.7,0,3,0.3,3.8,1c0.8,0.6,1.2,1.6,1.2,2.9c0,1.7-0.9,2.8-2.6,3.5l3.8,5.9h-2.5
			l-3.2-5.3H46.2z M46.2,99.7h1.5c1,0,1.7-0.2,2.2-0.6s0.7-0.9,0.7-1.7c0-0.8-0.2-1.3-0.7-1.6s-1.2-0.5-2.2-0.5h-1.4V99.7z"/>
		<path class="st0" d="M60.5,106.8h-2.2V95.4h-3.9v-1.9h10v1.9h-3.9V106.8z"/>
		<path class="st0" d="M76.9,95.2c-1.2,0-2.2,0.4-2.9,1.3c-0.7,0.9-1.1,2.1-1.1,3.7c0,1.6,0.3,2.9,1,3.7c0.7,0.8,1.7,1.3,3,1.3
			c0.6,0,1.1-0.1,1.6-0.2c0.5-0.1,1.1-0.3,1.6-0.4v1.9c-1,0.4-2.2,0.6-3.5,0.6c-1.9,0-3.4-0.6-4.5-1.8c-1-1.2-1.6-2.9-1.6-5.1
			c0-1.4,0.3-2.6,0.8-3.6c0.5-1,1.2-1.8,2.2-2.4c1-0.6,2.1-0.8,3.4-0.8c1.4,0,2.6,0.3,3.8,0.9L79.9,96c-0.4-0.2-0.9-0.4-1.4-0.6
			C78,95.3,77.5,95.2,76.9,95.2z"/>
		<path class="st0" d="M94.9,100.2c0,2.2-0.5,3.8-1.6,5c-1.1,1.2-2.6,1.8-4.6,1.8c-2,0-3.5-0.6-4.6-1.8c-1.1-1.2-1.6-2.9-1.6-5.1
			s0.5-3.9,1.6-5.1c1.1-1.2,2.6-1.8,4.6-1.8c2,0,3.5,0.6,4.6,1.8C94.4,96.3,94.9,98,94.9,100.2z M84.7,100.2c0,1.6,0.3,2.9,1,3.7
			c0.7,0.8,1.6,1.3,2.9,1.3c1.3,0,2.3-0.4,2.9-1.3s1-2.1,1-3.7c0-1.6-0.3-2.9-1-3.7c-0.7-0.8-1.6-1.3-2.9-1.3
			c-1.3,0-2.3,0.4-2.9,1.3C85.1,97.3,84.7,98.5,84.7,100.2z"/>
		<path class="st0" d="M103.5,106.8l-3.9-11.1h-0.1c0.1,1.6,0.2,3.2,0.2,4.6v6.5h-2V93.5h3.1l3.7,10.6h0.1l3.8-10.6h3.1v13.3h-2.1
			v-6.6c0-0.7,0-1.5,0-2.6s0.1-1.7,0.1-1.9h-0.1l-4,11.1H103.5z"/>
		<path class="st0" d="M123.7,97.6c0,1.4-0.5,2.5-1.4,3.2s-2.2,1.1-3.9,1.1h-1.4v5h-2.2V93.5h3.8c1.7,0,2.9,0.3,3.7,1
			C123.3,95.2,123.7,96.2,123.7,97.6z M117.1,100h1.2c1.1,0,1.9-0.2,2.5-0.6s0.8-1,0.8-1.8c0-0.8-0.2-1.3-0.7-1.7
			c-0.5-0.4-1.2-0.6-2.2-0.6h-1.5V100z"/>
		<path class="st0" d="M136.8,93.5v8.6c0,1-0.2,1.8-0.6,2.6c-0.4,0.7-1,1.3-1.8,1.7c-0.8,0.4-1.7,0.6-2.9,0.6
			c-1.6,0-2.9-0.4-3.8-1.3c-0.9-0.9-1.4-2.1-1.4-3.6v-8.6h2.2v8.4c0,1.1,0.3,1.9,0.8,2.4c0.5,0.5,1.3,0.8,2.3,0.8
			c2,0,3.1-1.1,3.1-3.2v-8.4H136.8z"/>
		<path class="st0" d="M144.8,106.8h-2.2V95.4h-3.9v-1.9h10v1.9h-3.9V106.8z"/>
		<path class="st0" d="M150.7,106.8V93.5h2.2v13.3H150.7z"/>
		<path class="st0" d="M167.5,106.8h-2.7l-6.5-10.6h-0.1l0,0.6c0.1,1.1,0.1,2.2,0.1,3.1v6.9h-2V93.5h2.6l6.5,10.5h0.1
			c0-0.1,0-0.6-0.1-1.5c0-0.9-0.1-1.6-0.1-2v-7h2V106.8z"/>
		<path class="st0" d="M176.4,99.6h4.9v6.7c-0.8,0.3-1.6,0.4-2.3,0.6c-0.7,0.1-1.5,0.2-2.4,0.2c-2,0-3.6-0.6-4.7-1.8
			c-1.1-1.2-1.6-2.9-1.6-5c0-2.1,0.6-3.8,1.8-5s2.9-1.8,5.1-1.8c1.4,0,2.7,0.3,3.9,0.8l-0.8,1.8c-1.1-0.5-2.2-0.7-3.2-0.7
			c-1.4,0-2.5,0.4-3.4,1.3c-0.8,0.9-1.2,2.1-1.2,3.7c0,1.6,0.4,2.9,1.1,3.7c0.7,0.8,1.8,1.3,3.2,1.3c0.7,0,1.5-0.1,2.3-0.3v-3.4
			h-2.8V99.6z"/>
		<path class="st0" d="M191.5,106.8h-2.2V93.5h7.5v1.8h-5.3v4.2h5v1.8h-5V106.8z"/>
		<path class="st0" d="M211,100.2c0,2.2-0.5,3.8-1.6,5c-1.1,1.2-2.6,1.8-4.6,1.8c-2,0-3.5-0.6-4.6-1.8c-1.1-1.2-1.6-2.9-1.6-5.1
			s0.5-3.9,1.6-5.1c1.1-1.2,2.6-1.8,4.6-1.8c2,0,3.5,0.6,4.6,1.8C210.5,96.3,211,98,211,100.2z M200.9,100.2c0,1.6,0.3,2.9,1,3.7
			c0.7,0.8,1.6,1.3,2.9,1.3c1.3,0,2.3-0.4,2.9-1.3s1-2.1,1-3.7c0-1.6-0.3-2.9-1-3.7c-0.7-0.8-1.6-1.3-2.9-1.3
			c-1.3,0-2.3,0.4-2.9,1.3C201.2,97.3,200.9,98.5,200.9,100.2z"/>
		<path class="st0" d="M216.1,101.5v5.3h-2.2V93.5h3.8c1.7,0,3,0.3,3.8,1c0.8,0.6,1.2,1.6,1.2,2.9c0,1.7-0.9,2.8-2.6,3.5l3.8,5.9
			h-2.5l-3.2-5.3H216.1z M216.1,99.7h1.5c1,0,1.7-0.2,2.2-0.6s0.7-0.9,0.7-1.7c0-0.8-0.2-1.3-0.7-1.6c-0.5-0.3-1.2-0.5-2.2-0.5h-1.4
			V99.7z"/>
		<path class="st0" d="M230.6,106.8V93.5h2.2v13.3H230.6z"/>
		<path class="st0" d="M247.4,106.8h-2.7l-6.5-10.6h-0.1l0,0.6c0.1,1.1,0.1,2.2,0.1,3.1v6.9h-2V93.5h2.6l6.5,10.5h0.1
			c0-0.1,0-0.6-0.1-1.5s-0.1-1.6-0.1-2v-7h2V106.8z"/>
		<path class="st0" d="M262,106.8h-2.7l-6.5-10.6h-0.1l0,0.6c0.1,1.1,0.1,2.2,0.1,3.1v6.9h-2V93.5h2.6l6.5,10.5h0.1
			c0-0.1,0-0.6-0.1-1.5s-0.1-1.6-0.1-2v-7h2V106.8z"/>
		<path class="st0" d="M277.3,100.2c0,2.2-0.5,3.8-1.6,5c-1.1,1.2-2.6,1.8-4.6,1.8c-2,0-3.5-0.6-4.6-1.8c-1.1-1.2-1.6-2.9-1.6-5.1
			s0.5-3.9,1.6-5.1c1.1-1.2,2.6-1.8,4.6-1.8c2,0,3.5,0.6,4.6,1.8C276.7,96.3,277.3,98,277.3,100.2z M267.1,100.2
			c0,1.6,0.3,2.9,1,3.7c0.7,0.8,1.6,1.3,2.9,1.3c1.3,0,2.3-0.4,2.9-1.3s1-2.1,1-3.7c0-1.6-0.3-2.9-1-3.7c-0.7-0.8-1.6-1.3-2.9-1.3
			c-1.3,0-2.3,0.4-2.9,1.3C267.5,97.3,267.1,98.5,267.1,100.2z"/>
		<path class="st0" d="M287.7,93.5h2.3l-4.7,13.3H283l-4.6-13.3h2.2l2.8,8.3c0.1,0.4,0.3,0.9,0.5,1.5c0.2,0.6,0.3,1.1,0.3,1.4
			c0.1-0.5,0.2-1,0.4-1.6c0.2-0.6,0.3-1.1,0.4-1.3L287.7,93.5z"/>
		<path class="st0" d="M299.9,106.8l-1.3-3.7h-5.1l-1.3,3.7h-2.3l5-13.3h2.4l5,13.3H299.9z M298,101.3l-1.2-3.6
			c-0.1-0.2-0.2-0.6-0.4-1.1c-0.2-0.5-0.3-0.9-0.3-1.1c-0.2,0.7-0.4,1.6-0.7,2.4l-1.2,3.5H298z"/>
		<path class="st0" d="M308.6,106.8h-2.2V95.4h-3.9v-1.9h10v1.9h-3.9V106.8z"/>
		<path class="st0" d="M314.5,106.8V93.5h2.2v13.3H314.5z"/>
		<path class="st0" d="M332,100.2c0,2.2-0.5,3.8-1.6,5c-1.1,1.2-2.6,1.8-4.6,1.8c-2,0-3.5-0.6-4.6-1.8c-1.1-1.2-1.6-2.9-1.6-5.1
			s0.5-3.9,1.6-5.1c1.1-1.2,2.6-1.8,4.6-1.8c2,0,3.5,0.6,4.6,1.8C331.5,96.3,332,98,332,100.2z M321.9,100.2c0,1.6,0.3,2.9,1,3.7
			c0.7,0.8,1.6,1.3,2.9,1.3c1.3,0,2.3-0.4,2.9-1.3s1-2.1,1-3.7c0-1.6-0.3-2.9-1-3.7c-0.7-0.8-1.6-1.3-2.9-1.3
			c-1.3,0-2.3,0.4-2.9,1.3C322.2,97.3,321.9,98.5,321.9,100.2z"/>
		<path class="st0" d="M345.9,106.8h-2.7l-6.5-10.6h-0.1l0,0.6c0.1,1.1,0.1,2.2,0.1,3.1v6.9h-2V93.5h2.6l6.5,10.5h0.1
			c0-0.1,0-0.6-0.1-1.5s-0.1-1.6-0.1-2v-7h2V106.8z"/>
	</g>
</g>
</svg>
